<svg version="1.1" id="Layer_1" xmlns="http://www.w3.org/2000/svg" xmlns:xlink="http://www.w3.org/1999/xlink" x="0px"
	y="0px" width="100%" viewBox="0 0 225 225" enable-background="new 0 0 225 225" xml:space="preserve">
	<path fill="#1C3041" opacity="1.000000" stroke="none" d="
M106.000000,0.999999 
	C110.356903,1.000000 114.713799,1.000000 119.667175,1.334662 
	C122.779579,2.603956 125.295502,3.538588 128.034866,4.658267 
	C129.119446,5.251194 129.980576,5.659074 131.038818,6.332366 
	C133.171387,7.627484 135.106857,8.657190 137.312042,9.916874 
	C157.445526,21.693584 177.246872,33.349625 197.196915,44.745331 
	C208.839249,51.395576 214.657715,61.137459 214.629227,74.533356 
	C214.573944,100.523743 214.585144,126.514381 214.629898,152.504822 
	C214.652588,165.679550 209.051941,175.491318 197.559052,181.996170 
	C171.690872,196.637329 145.851242,211.328918 120.000000,226.000000 
	C115.975456,226.000000 111.950912,226.000000 107.281464,225.697968 
	C103.494705,224.226059 100.352844,223.056168 97.030807,221.620621 
	C95.910912,220.875336 94.971191,220.395721 93.839417,219.653290 
	C92.094696,218.602768 90.542030,217.815048 88.763580,216.771484 
	C85.641380,214.612076 82.833336,212.554825 79.834099,210.830093 
	C61.692062,200.397324 43.355354,190.292450 25.407906,179.537018 
	C18.002802,175.099335 13.625426,167.967194 13.025288,158.901703 
	C13.498769,158.498978 13.755451,158.252655 14.205437,157.726273 
	C14.267214,155.962570 14.135687,154.478912 14.003408,152.526917 
	C14.000944,125.706131 13.999231,99.353722 14.288490,72.885284 
	C14.354109,71.157700 14.128756,69.546127 13.921419,67.491341 
	C13.878387,65.858101 13.817339,64.668068 13.793137,63.131271 
	C16.383831,54.963089 21.515493,49.326927 28.551247,45.246616 
	C47.704716,34.138756 66.837341,22.994949 86.318634,11.798113 
	C93.106026,8.153892 99.553009,4.576945 106.000000,0.999999 
M108.021240,120.504791 
	C111.974899,121.777679 116.174606,122.586197 119.788162,124.500938 
	C121.891556,125.615479 124.126038,128.373871 124.397301,130.622345 
	C124.830498,134.212906 121.426765,135.483612 118.317963,135.878387 
	C115.528099,136.232651 112.520477,136.769913 109.889938,136.108612 
	C103.235710,134.435745 96.739494,132.134308 89.341652,129.822723 
	C86.352333,133.721542 82.671043,138.522858 78.644318,143.774719 
	C81.586311,145.850800 83.789413,147.990753 86.422867,149.168289 
	C102.833511,156.506287 119.488876,157.931534 136.004700,149.702484 
	C142.379288,146.526321 146.477737,141.107986 147.713730,133.816483 
	C149.618088,122.582085 142.874969,113.078667 132.589050,108.351624 
	C125.997505,105.322365 118.588165,104.113411 111.827293,101.388985 
	C109.543411,100.468658 108.125366,97.399673 106.311630,95.312653 
	C108.509087,93.600906 110.633011,91.778259 112.947823,90.243515 
	C113.662201,89.769875 114.945450,89.860863 115.885635,90.068054 
	C122.762154,91.583481 129.617645,93.194298 137.496796,95.009285 
	C139.653107,90.972824 142.416656,85.799667 145.153351,80.676765 
	C129.902527,71.492043 114.663918,69.012802 98.679565,74.974365 
	C89.259117,78.487846 82.932869,85.134338 82.584267,95.716194 
	C82.246582,105.966492 88.138443,112.448364 96.944260,116.543999 
	C100.242943,118.078232 103.814812,119.025131 108.021240,120.504791 
z" />
	<path fill="#FEFEFE" opacity="1.000000" stroke="none" d="
M130.841721,6.066953 
	C129.980576,5.659074 129.119446,5.251194 128.137787,4.325391 
	C128.678177,2.871645 129.339096,1.935823 130.000000,1.000000 
	C161.967178,1.000000 193.934372,1.000000 225.950775,1.000000 
	C225.950775,75.890244 225.950775,150.780533 225.950775,226.000000 
	C190.979797,226.000000 155.958557,226.000000 120.468658,226.000000 
	C145.851242,211.328918 171.690872,196.637329 197.559052,181.996170 
	C209.051941,175.491318 214.652588,165.679550 214.629898,152.504822 
	C214.585144,126.514381 214.573944,100.523743 214.629227,74.533356 
	C214.657715,61.137459 208.839249,51.395576 197.196915,44.745331 
	C177.246872,33.349625 157.445526,21.693584 137.305939,9.548595 
	C136.858170,7.577987 136.686218,6.205635 136.492126,4.656625 
	C134.261688,5.213340 132.551697,5.640146 130.841721,6.066953 
z" />
	<path fill="#FEFEFE" opacity="1.000000" stroke="none" d="
M85.978226,11.865387 
	C66.837341,22.994949 47.704716,34.138756 28.551247,45.246616 
	C21.515493,49.326927 16.383831,54.963089 13.555622,63.443638 
	C13.112091,65.374443 12.942920,66.646111 12.707384,68.040695 
	C12.641019,68.163620 12.778502,68.406845 12.545077,68.803085 
	C12.203638,70.184761 12.001532,71.170158 12.001318,72.155609 
	C11.995378,99.511078 11.999208,126.866570 12.051047,154.221954 
	C12.053793,155.671143 12.491178,157.119522 12.676661,158.702515 
	C12.627101,158.836761 12.808491,159.058121 12.808491,159.058121 
	C13.625426,167.967194 18.002802,175.099335 25.407906,179.537018 
	C43.355354,190.292450 61.692062,200.397324 79.834099,210.830093 
	C82.833336,212.554825 85.641380,214.612076 88.867767,217.073288 
	C90.808998,218.392639 92.420242,219.154373 94.031479,219.916092 
	C94.971191,220.395721 95.910912,220.875336 96.872200,221.837006 
	C97.595856,223.546021 98.297928,224.773010 99.000000,226.000000 
	C66.367302,226.000000 33.734604,226.000000 1.050953,226.000000 
	C1.050953,151.111984 1.050953,76.223930 1.050953,1.000000 
	C33.353455,1.000000 65.708069,1.000000 98.409103,1.316816 
	C97.389381,2.486702 95.906006,3.199129 94.680412,4.220793 
	C91.715691,6.692216 88.871193,9.307871 85.978226,11.865387 
M89.527542,223.499893 
	C89.527542,223.499893 89.487122,223.514984 89.527542,223.499893 
z" />
	<path fill="#F9F1ED" opacity="1.000000" stroke="none" d="
M86.318634,11.798113 
	C88.871193,9.307871 91.715691,6.692216 94.680412,4.220793 
	C95.906006,3.199129 97.389381,2.486702 98.877762,1.316816 
	C101.041664,1.000000 103.083336,1.000000 105.562500,0.999999 
	C99.553009,4.576945 93.106026,8.153892 86.318634,11.798113 
z" />
	<path fill="#FAF3EF" opacity="1.000000" stroke="none" d="
M99.333328,226.000000 
	C98.297928,224.773010 97.595856,223.546021 97.052383,222.102661 
	C100.352844,223.056168 103.494705,224.226059 106.818283,225.697968 
	C105.611107,226.000000 104.222221,226.000000 102.303238,225.911774 
	C101.482758,225.710693 101.225044,225.769501 101.000000,226.000000 
	C100.555557,226.000000 100.111107,226.000000 99.333328,226.000000 
z" />
	<path fill="#F9F4F2" opacity="1.000000" stroke="none" d="
M129.545883,1.000000 
	C129.339096,1.935823 128.678177,2.871645 127.914352,4.140343 
	C125.295502,3.538588 122.779579,2.603956 120.131821,1.334662 
	C123.030586,1.000000 126.061180,1.000000 129.545883,1.000000 
z" />
	<path fill="#FEFEFE" opacity="1.000000" stroke="none" d="
M101.250000,226.000000 
	C101.225044,225.769501 101.482758,225.710693 101.886566,225.911774 
	C102.000000,226.000000 101.500000,226.000000 101.250000,226.000000 
z" />
	<path fill="#FDFBFB" opacity="1.000000" stroke="none" d="
M107.641678,120.372299 
	C103.814812,119.025131 100.242943,118.078232 96.944260,116.543999 
	C88.138443,112.448364 82.246582,105.966492 82.584267,95.716194 
	C82.932869,85.134338 89.259117,78.487846 98.679565,74.974365 
	C114.663918,69.012802 129.902527,71.492043 145.153351,80.676765 
	C142.416656,85.799667 139.653107,90.972824 137.496796,95.009285 
	C129.617645,93.194298 122.762154,91.583481 115.885635,90.068054 
	C114.945450,89.860863 113.662201,89.769875 112.947823,90.243515 
	C110.633011,91.778259 108.509087,93.600906 106.311630,95.312653 
	C108.125366,97.399673 109.543411,100.468658 111.827293,101.388985 
	C118.588165,104.113411 125.997505,105.322365 132.589050,108.351624 
	C142.874969,113.078667 149.618088,122.582085 147.713730,133.816483 
	C146.477737,141.107986 142.379288,146.526321 136.004700,149.702484 
	C119.488876,157.931534 102.833511,156.506287 86.422867,149.168289 
	C83.789413,147.990753 81.586311,145.850800 78.644318,143.774719 
	C82.671043,138.522858 86.352333,133.721542 89.341652,129.822723 
	C96.739494,132.134308 103.235710,134.435745 109.889938,136.108612 
	C112.520477,136.769913 115.528099,136.232651 118.317963,135.878387 
	C121.426765,135.483612 124.830498,134.212906 124.397301,130.622345 
	C124.126038,128.373871 121.891556,125.615479 119.788162,124.500938 
	C116.174606,122.586197 111.974899,121.777679 107.641678,120.372299 
z" />
	<path fill="#1C3041" opacity="1.000000" stroke="none" d="
M13.025288,158.901703 
	C12.808491,159.058121 12.627101,158.836761 12.754093,158.193298 
	C12.947939,129.367996 13.014792,101.186134 13.310611,73.002823 
	C13.539577,73.001373 13.997519,73.001305 13.997519,73.001305 
	C13.999231,99.353722 14.000944,125.706131 14.002501,152.944550 
	C14.005608,155.222488 14.008872,156.614410 14.012136,158.006332 
	C13.755451,158.252655 13.498769,158.498978 13.025288,158.901703 
z" />
	<path fill="#F9F4F2" opacity="1.000000" stroke="none" d="
M131.038818,6.332366 
	C132.551697,5.640146 134.261688,5.213340 136.492126,4.656625 
	C136.686218,6.205635 136.858170,7.577987 137.036224,9.318618 
	C135.106857,8.657190 133.171387,7.627484 131.038818,6.332366 
z" />
	<path fill="#1C3041" opacity="1.000000" stroke="none" d="
M14.288490,72.885284 
	C13.997519,73.001305 13.539577,73.001373 13.289141,72.544922 
	C12.951970,70.861267 12.865236,69.634056 12.778502,68.406845 
	C12.778502,68.406845 12.641019,68.163620 12.989700,68.052216 
	C13.526723,67.938728 13.715063,67.936638 13.903402,67.934555 
	C14.128756,69.546127 14.354109,71.157700 14.288490,72.885284 
z" />
	<path fill="#FAF3EF" opacity="1.000000" stroke="none" d="
M93.839417,219.653290 
	C92.420242,219.154373 90.808998,218.392639 89.093567,217.329132 
	C90.542030,217.815048 92.094696,218.602768 93.839417,219.653290 
z" />
	<path fill="#1C3041" opacity="1.000000" stroke="none" d="
M14.205439,157.726273 
	C14.008872,156.614410 14.005608,155.222488 14.003252,153.412918 
	C14.135687,154.478912 14.267214,155.962570 14.205439,157.726273 
z" />
	<path fill="#1C3041" opacity="1.000000" stroke="none" d="
M13.921419,67.491341 
	C13.715063,67.936638 13.526723,67.938728 13.056066,67.929298 
	C12.942920,66.646111 13.112091,65.374443 13.518776,63.790409 
	C13.817339,64.668068 13.878387,65.858101 13.921419,67.491341 
z" />
	<path fill="#1C3041" opacity="1.000000" stroke="none" d="
M12.545077,68.803085 
	C12.865236,69.634056 12.951970,70.861267 13.060175,72.546379 
	C13.014792,101.186134 12.947939,129.367996 12.803654,158.059052 
	C12.491178,157.119522 12.053793,155.671143 12.051047,154.221954 
	C11.999208,126.866570 11.995378,99.511078 12.001318,72.155609 
	C12.001532,71.170158 12.203638,70.184761 12.545077,68.803085 
z" />
	<path fill="#FAF3EF" opacity="1.000000" stroke="none" d="
M89.507332,223.507446 
	C89.487122,223.514984 89.527542,223.499893 89.507332,223.507446 
z" />
</svg>