<svg width="100%" height="100%" viewBox="0 0 12 12" version="1.1" xmlns="http://www.w3.org/2000/svg"
    xmlns:xlink="http://www.w3.org/1999/xlink" xml:space="preserve" xmlns:serif="http://www.serif.com/"
    style="fill-rule:evenodd;clip-rule:evenodd;stroke-linejoin:round;stroke-miterlimit:2;" fill="#fff">
    <path
        d="M5.404,0.98C5.583,0.98 5.746,1.086 5.818,1.249C5.888,1.192 5.976,1.16 6.067,1.16C6.261,1.16 6.427,1.304 6.455,1.496C6.5,1.475 6.55,1.465 6.6,1.466C6.765,1.47 6.895,1.597 6.912,1.753C6.987,1.637 7.096,1.547 7.225,1.496C7.558,1.361 7.943,1.52 8.084,1.851C8.127,1.803 8.179,1.763 8.237,1.733C8.506,1.595 8.84,1.703 8.978,1.972C9.015,2.045 9.036,2.126 9.038,2.207C9.097,2.184 9.16,2.171 9.224,2.171C9.497,2.171 9.721,2.396 9.721,2.668C9.721,2.718 9.714,2.767 9.699,2.814C9.725,2.81 9.75,2.808 9.776,2.808C10.024,2.808 10.228,3.012 10.228,3.26C10.228,3.359 10.196,3.455 10.136,3.533C10.284,3.593 10.382,3.738 10.382,3.897C10.382,4.021 10.323,4.138 10.224,4.212C10.264,4.241 10.296,4.279 10.319,4.324C10.369,4.42 10.367,4.535 10.314,4.63C10.401,4.652 10.483,4.692 10.555,4.747C10.838,4.968 10.896,5.379 10.683,5.669C10.746,5.683 10.805,5.708 10.859,5.744C11.112,5.906 11.188,6.247 11.027,6.502C10.983,6.571 10.925,6.63 10.855,6.674C11.056,6.83 11.106,7.117 10.969,7.332C10.9,7.441 10.791,7.519 10.667,7.549C10.736,7.631 10.774,7.735 10.774,7.842C10.774,8.09 10.57,8.294 10.322,8.294C10.303,8.294 10.284,8.293 10.265,8.291C10.264,8.284 10.263,8.277 10.261,8.271C10.266,8.295 10.268,8.321 10.268,8.346C10.268,8.561 10.091,8.738 9.876,8.738C9.824,8.738 9.772,8.727 9.724,8.707C9.718,8.757 9.702,8.805 9.675,8.847C9.627,8.924 9.549,8.976 9.46,8.991C9.476,9.066 9.48,9.143 9.471,9.219C9.429,9.575 9.108,9.836 8.751,9.806C8.771,9.866 8.78,9.93 8.778,9.994C8.77,10.296 8.516,10.537 8.214,10.53C8.132,10.528 8.052,10.507 7.979,10.47C7.95,10.72 7.736,10.91 7.485,10.91C7.352,10.91 7.224,10.856 7.131,10.762C7.069,10.945 6.896,11.07 6.703,11.07C6.523,11.07 6.36,10.963 6.289,10.799C6.218,10.857 6.13,10.888 6.039,10.888C5.846,10.888 5.679,10.744 5.652,10.553C5.606,10.574 5.557,10.585 5.507,10.585C5.345,10.58 5.211,10.455 5.196,10.295L5.198,10.291C5.123,10.409 5.012,10.501 4.882,10.552C4.549,10.685 4.166,10.528 4.023,10.2C3.979,10.247 3.927,10.286 3.87,10.316C3.601,10.452 3.268,10.345 3.13,10.077C3.092,10.004 3.071,9.923 3.069,9.841C3.01,9.864 2.948,9.876 2.886,9.876C2.613,9.876 2.389,9.652 2.389,9.379C2.389,9.331 2.396,9.282 2.41,9.236C2.383,9.241 2.357,9.243 2.33,9.243C2.083,9.243 1.878,9.039 1.878,8.791C1.878,8.691 1.912,8.594 1.973,8.515C1.824,8.455 1.727,8.311 1.727,8.151C1.727,8.028 1.785,7.911 1.885,7.837C1.844,7.808 1.811,7.769 1.788,7.725C1.738,7.629 1.74,7.514 1.793,7.42L1.803,7.422C1.712,7.4 1.628,7.359 1.554,7.302C1.269,7.083 1.21,6.67 1.423,6.38C1.361,6.366 1.302,6.341 1.248,6.307C0.994,6.145 0.918,5.802 1.08,5.547C1.124,5.478 1.183,5.42 1.253,5.377C1.131,5.283 1.059,5.137 1.059,4.983C1.059,4.754 1.217,4.554 1.44,4.5C1.371,4.418 1.333,4.315 1.333,4.209C1.333,3.961 1.537,3.757 1.785,3.757C1.804,3.757 1.823,3.758 1.841,3.76C1.839,3.741 1.837,3.722 1.837,3.703C1.837,3.488 2.014,3.311 2.229,3.311C2.282,3.311 2.334,3.321 2.383,3.342C2.388,3.292 2.405,3.244 2.432,3.202C2.481,3.126 2.559,3.074 2.648,3.058C2.631,2.984 2.627,2.908 2.636,2.832C2.677,2.475 3,2.213 3.358,2.245C3.337,2.184 3.327,2.121 3.328,2.057C3.335,1.76 3.582,1.52 3.878,1.52C3.883,1.52 3.888,1.52 3.893,1.52C3.975,1.521 4.055,1.541 4.128,1.578C4.158,1.329 4.371,1.139 4.622,1.139C4.755,1.139 4.883,1.193 4.976,1.288C5.038,1.104 5.211,0.98 5.404,0.98L5.404,0.98ZM1.841,3.76C1.843,3.766 1.844,3.773 1.845,3.78L1.843,3.76C1.843,3.76 1.842,3.76 1.841,3.76ZM8.751,9.805C8.751,9.804 8.75,9.804 8.75,9.803L8.732,9.803C8.738,9.804 8.744,9.804 8.751,9.805ZM6.912,1.754C6.911,1.755 6.91,1.757 6.909,1.76L6.912,1.754L6.912,1.754ZM5.728,1.747L5.727,1.748C5.639,1.837 5.519,1.886 5.394,1.883C5.286,1.881 5.182,1.84 5.103,1.767C5.042,1.987 4.838,2.139 4.61,2.133C4.547,2.132 4.486,2.119 4.429,2.096C4.415,2.38 4.183,2.609 3.898,2.619C3.953,2.733 3.975,2.86 3.96,2.987C3.933,3.209 3.797,3.403 3.597,3.504C3.699,3.61 3.755,3.754 3.751,3.901C3.747,4.019 3.707,4.133 3.634,4.227C3.795,4.316 3.9,4.488 3.896,4.684C3.894,4.742 3.882,4.799 3.861,4.852C4.098,4.877 4.278,5.083 4.271,5.321C4.271,5.344 4.269,5.367 4.266,5.39C4.292,5.386 4.318,5.384 4.345,5.385C4.516,5.388 4.658,5.51 4.696,5.67C4.752,5.633 4.818,5.613 4.886,5.614C5.041,5.618 5.166,5.726 5.202,5.87C5.26,5.837 5.331,5.834 5.392,5.862C5.414,5.746 5.466,5.637 5.544,5.547C5.518,5.528 5.498,5.504 5.484,5.476C5.452,5.414 5.453,5.341 5.486,5.28C5.335,5.246 5.226,5.11 5.226,4.956C5.226,4.868 5.261,4.784 5.323,4.721C5.246,4.688 5.182,4.628 5.144,4.553C5.117,4.502 5.103,4.444 5.103,4.386C5.103,4.235 5.196,4.098 5.336,4.042C5.326,4.046 5.316,4.05 5.306,4.055C5.265,4.018 5.231,3.973 5.206,3.924C5.172,3.859 5.154,3.787 5.154,3.714C5.154,3.499 5.306,3.311 5.517,3.266L5.517,3.265C5.39,3.017 5.488,2.708 5.736,2.58C5.82,2.535 5.916,2.516 6.012,2.524C5.999,2.305 6.116,2.097 6.311,1.997C6.321,1.992 6.331,1.988 6.341,1.984C6.316,1.952 6.298,1.917 6.287,1.879C6.219,1.923 6.14,1.946 6.059,1.945C5.922,1.941 5.796,1.866 5.728,1.747ZM8.015,2.503C7.941,2.606 7.839,2.685 7.721,2.733C7.513,2.816 7.277,2.789 7.094,2.662L7.094,2.656C7.05,2.799 6.95,2.918 6.817,2.986C6.712,3.041 6.592,3.061 6.476,3.043C6.472,3.23 6.366,3.401 6.199,3.487C6.148,3.514 6.092,3.532 6.034,3.54C6.126,3.759 6.031,4.016 5.82,4.124C5.799,4.135 5.778,4.144 5.756,4.152C5.773,4.172 5.787,4.194 5.799,4.217C5.876,4.367 5.841,4.551 5.715,4.662C5.775,4.694 5.824,4.743 5.855,4.804C5.925,4.937 5.894,5.102 5.781,5.202C5.813,5.221 5.839,5.25 5.857,5.283C5.867,5.301 5.872,5.318 5.876,5.334C5.986,5.303 6.101,5.301 6.212,5.326C6.217,5.301 6.226,5.277 6.24,5.256C6.277,5.197 6.341,5.161 6.41,5.159C6.399,5.126 6.394,5.091 6.394,5.057C6.394,4.874 6.544,4.724 6.727,4.724C6.754,4.724 6.781,4.728 6.808,4.735C6.799,4.651 6.819,4.566 6.864,4.496C6.931,4.39 7.048,4.325 7.174,4.325C7.244,4.325 7.313,4.345 7.372,4.384C7.384,4.329 7.405,4.277 7.436,4.231C7.519,4.098 7.665,4.017 7.822,4.017C7.91,4.017 7.997,4.043 8.071,4.091C8.104,4.112 8.134,4.138 8.16,4.167C8.253,4.02 8.416,3.93 8.59,3.93C8.687,3.93 8.782,3.958 8.864,4.01C8.945,4.061 9.01,4.134 9.051,4.221C9.229,4.101 9.468,4.091 9.658,4.214C9.696,4.238 9.731,4.267 9.762,4.3C9.774,4.28 9.788,4.262 9.804,4.246C9.732,4.208 9.674,4.149 9.637,4.077C9.575,3.955 9.581,3.809 9.653,3.692C9.533,3.658 9.433,3.575 9.376,3.465C9.326,3.368 9.313,3.258 9.339,3.153C9.116,3.206 8.885,3.1 8.78,2.897C8.751,2.841 8.734,2.78 8.728,2.718C8.472,2.842 8.159,2.748 8.015,2.503ZM2.625,3.685C2.628,3.766 2.607,3.847 2.563,3.915C2.489,4.031 2.36,4.099 2.223,4.096C2.253,4.214 2.236,4.341 2.167,4.451C2.109,4.542 2.02,4.609 1.917,4.64C2.072,4.802 2.103,5.054 1.977,5.252C1.943,5.304 1.9,5.35 1.849,5.387C2.087,5.544 2.164,5.862 2.025,6.112C2.15,6.124 2.27,6.171 2.37,6.25C2.547,6.387 2.643,6.604 2.626,6.827C2.766,6.795 2.916,6.817 3.046,6.902C3.145,6.964 3.222,7.057 3.265,7.167C3.429,7.074 3.631,7.08 3.79,7.181C3.839,7.212 3.883,7.251 3.919,7.297C4.061,7.106 4.33,7.057 4.531,7.185C4.551,7.198 4.569,7.212 4.587,7.228C4.596,7.203 4.608,7.179 4.622,7.157C4.713,7.015 4.889,6.952 5.049,7.004C5.045,6.937 5.063,6.87 5.098,6.814C5.18,6.687 5.337,6.631 5.48,6.677C5.482,6.596 5.53,6.524 5.603,6.491C5.524,6.419 5.462,6.329 5.424,6.229L5.424,6.225C5.387,6.251 5.344,6.264 5.299,6.263C5.23,6.261 5.165,6.226 5.127,6.168C5.064,6.239 4.973,6.279 4.878,6.279C4.733,6.279 4.604,6.184 4.561,6.046C4.494,6.097 4.411,6.123 4.326,6.121C4.128,6.117 3.967,5.952 3.967,5.754C3.967,5.75 3.967,5.747 3.967,5.743C3.914,5.761 3.858,5.769 3.802,5.768C3.556,5.762 3.356,5.557 3.356,5.31C3.356,5.266 3.362,5.222 3.375,5.179L3.373,5.179C3.099,5.173 2.876,4.946 2.876,4.671C2.876,4.667 2.876,4.662 2.877,4.658C2.879,4.563 2.908,4.47 2.96,4.391C2.761,4.298 2.635,4.094 2.641,3.874C2.642,3.812 2.653,3.752 2.675,3.695C2.658,3.693 2.641,3.689 2.625,3.685ZM8.188,4.752C8.046,4.943 7.776,4.992 7.576,4.864C7.556,4.851 7.537,4.838 7.52,4.823C7.511,4.847 7.5,4.871 7.486,4.893C7.395,5.034 7.219,5.097 7.06,5.044C7.063,5.113 7.044,5.18 7.008,5.237C6.927,5.364 6.77,5.421 6.627,5.375C6.626,5.413 6.615,5.45 6.595,5.481C6.584,5.497 6.572,5.512 6.558,5.524C6.632,5.604 6.686,5.701 6.715,5.806C6.744,5.793 6.776,5.786 6.808,5.786C6.878,5.789 6.942,5.825 6.98,5.884C7.043,5.811 7.134,5.77 7.23,5.77C7.375,5.77 7.505,5.865 7.547,6.004C7.614,5.953 7.697,5.926 7.781,5.928C7.986,5.932 8.145,6.102 8.141,6.306C8.141,6.307 8.141,6.308 8.141,6.31L8.141,6.307C8.193,6.289 8.249,6.28 8.304,6.281C8.551,6.286 8.752,6.491 8.752,6.738C8.752,6.743 8.752,6.747 8.752,6.751C8.751,6.791 8.745,6.831 8.734,6.869C9.016,6.877 9.238,7.111 9.23,7.393C9.228,7.488 9.199,7.58 9.146,7.66C9.347,7.752 9.475,7.956 9.47,8.177C9.467,8.239 9.455,8.3 9.432,8.358L9.434,8.354L9.484,8.363C9.48,8.282 9.502,8.202 9.546,8.133C9.62,8.018 9.749,7.949 9.886,7.952C9.855,7.832 9.875,7.703 9.942,7.597C10.001,7.507 10.09,7.441 10.194,7.411C10.035,7.246 10.009,6.992 10.133,6.799C10.166,6.746 10.21,6.7 10.261,6.664C10.023,6.506 9.946,6.187 10.086,5.937C9.959,5.926 9.838,5.879 9.738,5.801L9.737,5.801C9.559,5.664 9.463,5.446 9.48,5.222C9.337,5.256 9.186,5.23 9.062,5.15C8.962,5.086 8.885,4.992 8.842,4.882C8.678,4.975 8.476,4.97 8.317,4.869C8.268,4.838 8.224,4.798 8.188,4.752ZM8.141,6.31L8.137,6.343C8.139,6.332 8.14,6.321 8.141,6.31ZM6.709,6.18C6.676,6.294 6.613,6.397 6.528,6.479C6.569,6.499 6.603,6.531 6.625,6.573C6.656,6.635 6.655,6.709 6.621,6.771C6.772,6.805 6.88,6.94 6.88,7.095C6.88,7.182 6.846,7.265 6.786,7.327C6.863,7.361 6.926,7.42 6.965,7.495C7.057,7.675 6.985,7.899 6.805,7.992C6.845,8.029 6.878,8.073 6.903,8.123C6.937,8.187 6.955,8.26 6.955,8.333C6.955,8.504 6.858,8.662 6.705,8.739C6.67,8.757 6.632,8.771 6.593,8.78L6.593,8.782C6.63,8.854 6.65,8.934 6.65,9.016C6.65,9.206 6.543,9.382 6.373,9.469C6.288,9.513 6.193,9.532 6.098,9.524C6.112,9.755 5.98,9.972 5.768,10.065C5.793,10.096 5.812,10.132 5.824,10.17C5.823,10.17 5.822,10.17 5.822,10.17L5.822,10.172C5.889,10.126 5.968,10.103 6.05,10.105C6.186,10.108 6.312,10.182 6.38,10.301C6.467,10.211 6.588,10.162 6.713,10.166C6.821,10.168 6.926,10.21 7.006,10.284C7.065,10.063 7.269,9.91 7.497,9.916C7.559,9.917 7.621,9.931 7.678,9.955L7.678,9.966C7.685,9.677 7.919,9.44 8.209,9.43C8.153,9.316 8.132,9.188 8.147,9.062C8.175,8.832 8.317,8.644 8.51,8.545L8.511,8.547C8.408,8.44 8.352,8.297 8.356,8.149C8.359,8.03 8.399,7.916 8.472,7.822C8.253,7.699 8.157,7.431 8.246,7.197C8.009,7.172 7.829,6.967 7.835,6.73C7.835,6.706 7.837,6.682 7.841,6.659C7.815,6.664 7.788,6.666 7.762,6.666C7.595,6.661 7.451,6.543 7.413,6.38C7.356,6.418 7.289,6.438 7.221,6.436C7.071,6.431 6.942,6.326 6.907,6.18C6.874,6.199 6.836,6.208 6.799,6.207C6.767,6.206 6.736,6.198 6.709,6.184L6.709,6.18ZM6.227,6.645C6.172,6.659 6.116,6.666 6.059,6.666C6.003,6.666 5.949,6.66 5.898,6.647C5.907,6.698 5.896,6.751 5.868,6.794C5.831,6.853 5.766,6.89 5.696,6.892C5.706,6.924 5.712,6.957 5.712,6.991C5.712,7.173 5.561,7.323 5.379,7.323C5.353,7.323 5.326,7.32 5.301,7.314C5.31,7.398 5.29,7.482 5.244,7.553C5.135,7.723 4.905,7.774 4.735,7.665C4.723,7.719 4.701,7.771 4.671,7.818C4.587,7.95 4.441,8.03 4.285,8.03C4.197,8.03 4.112,8.005 4.038,7.958C4.004,7.937 3.974,7.911 3.947,7.881L3.946,7.883C3.796,8.119 3.478,8.189 3.242,8.038C3.162,7.988 3.097,7.915 3.056,7.829C2.878,7.949 2.641,7.96 2.449,7.837C2.41,7.813 2.375,7.784 2.343,7.751C2.332,7.77 2.318,7.787 2.303,7.803C2.375,7.841 2.434,7.899 2.471,7.971C2.533,8.094 2.527,8.24 2.454,8.356C2.574,8.39 2.674,8.473 2.73,8.584C2.78,8.68 2.794,8.791 2.768,8.896C2.991,8.842 3.224,8.949 3.328,9.153C3.356,9.209 3.373,9.269 3.379,9.331C3.635,9.205 3.949,9.299 4.094,9.546C4.168,9.443 4.27,9.363 4.388,9.316C4.603,9.23 4.836,9.264 5.015,9.387C5.059,9.246 5.158,9.129 5.29,9.062C5.395,9.008 5.514,8.989 5.631,9.008C5.634,8.82 5.74,8.648 5.908,8.561C5.96,8.535 6.016,8.517 6.074,8.509C5.982,8.29 6.075,8.033 6.287,7.924C6.308,7.914 6.33,7.905 6.352,7.898C6.335,7.878 6.319,7.855 6.307,7.831C6.231,7.682 6.266,7.499 6.392,7.388C6.331,7.357 6.282,7.307 6.252,7.246C6.184,7.112 6.214,6.948 6.326,6.847C6.294,6.827 6.268,6.799 6.251,6.765C6.231,6.728 6.223,6.686 6.227,6.645Z"
        style="fill-rule:nonzero;" />
</svg>